<svg width="2186" height="2186" viewBox="0 0 2186 2186" fill="none" xmlns="http://www.w3.org/2000/svg">
<path d="M421 323.434C421 278.292 457.621 241.696 502.795 241.696H658.205C703.379 241.696 740 278.292 740 323.434V649.566C740 694.709 703.379 731.304 658.205 731.304H502.795C457.621 731.304 421 694.709 421 649.566V323.434Z" fill="white"/>
<path d="M938.87 1654C984.012 1654 1020.61 1690.62 1020.61 1735.79L1020.61 1891.21C1020.61 1936.38 984.012 1973 938.87 1973L612.738 1973C567.595 1973 531 1936.38 531 1891.21L531 1735.79C531 1690.62 567.595 1654 612.738 1654L938.87 1654Z" fill="white"/>
<path d="M774 671.052H1294.27C1314.97 671.052 1335.45 675.132 1354.57 683.059C1373.69 690.986 1391.06 702.605 1405.69 717.252C1420.32 731.899 1431.92 749.288 1439.84 768.425C1447.76 787.563 1452.36 807.68 1452.36 828.394C1452.36 849.108 1448.28 869.62 1440.37 888.757C1432.45 907.895 1420.84 925.284 1406.21 939.931C1391.58 954.578 1374.21 966.197 1355.1 974.124C1335.98 982.051 1315.88 986.656 1295.19 986.656H1117.81C1048.84 986.656 980.935 1000.78 917.215 1027.21C853.495 1053.63 795.597 1092.36 746.828 1141.18C698.058 1190.01 659.372 1247.97 632.979 1311.76C606.585 1375.55 593 1443.92 593 1512.97L593 1623H960.64V1512.97C960.64 1492.26 964.716 1471.75 972.634 1452.61C980.552 1433.47 992.158 1416.08 1006.79 1401.43C1021.42 1386.79 1038.79 1375.17 1057.9 1367.24C1077.02 1359.31 1097.12 1354.71 1117.81 1354.71H1295.19C1364.16 1354.71 1432.06 1340.58 1495.78 1314.16C1559.51 1287.74 1617.4 1249.01 1666.17 1200.18C1714.94 1151.36 1753.63 1093.4 1780.02 1029.6C1806.42 965.813 1820 897.442 1820 828.394C1820 759.347 1805.89 691.37 1779.5 627.578C1753.1 563.786 1714.42 505.824 1665.65 457C1616.88 408.176 1558.98 369.447 1495.26 343.023C1431.54 316.6 1363.24 303 1294.27 303H774V671.052Z" fill="white"/>
</svg>
