<svg xmlns="http://www.w3.org/2000/svg" width="2054.8076" height="628.54816"><g transform="translate(32, 32)"><g><rect x="0.0" y="125.6655" width="108.8" height="80.0" fill="rgb(10, 160, 40)" rx="10" /><text x="54.4" y="141.1655" fill="white" text-anchor="middle" dominant-baseline="central" font-size="16" font-family="Arial" font-weight="bold">Read (1)</text><circle cx="108.8" cy="173.6655" r="8" fill="white" stroke="rgb(10, 160, 40)" stroke-width="2" /><text x="96.8" y="173.6655" fill="white" text-anchor="end" dominant-baseline="central" font-size="12" font-family="Arial">output</text></g><g><rect x="250.71118" y="125.666405" width="166.4" height="80.0" fill="rgb(0, 80, 210)" rx="10" /><text x="333.9112" y="141.16641" fill="white" text-anchor="middle" dominant-baseline="central" font-size="16" font-family="Arial" font-weight="bold">Repeat x10 (2)</text><circle cx="250.71118" cy="173.66641" r="8" fill="white" stroke="rgb(0, 80, 210)" stroke-width="2" /><text x="262.71118" y="173.66641" fill="white" dominant-baseline="central" font-size="12" font-family="Arial">input</text><circle cx="417.11118" cy="173.66641" r="8" fill="white" stroke="rgb(0, 80, 210)" stroke-width="2" /><text x="405.11118" y="173.66641" fill="white" text-anchor="end" dominant-baseline="central" font-size="12" font-family="Arial">output</text></g><g><rect x="503.63116" y="125.666855" width="185.6" height="80.0" fill="rgb(0, 80, 210)" rx="10" /><text x="596.43115" y="141.16685" fill="white" text-anchor="middle" dominant-baseline="central" font-size="16" font-family="Arial" font-weight="bold">Color jitter (3)</text><circle cx="503.63116" cy="173.66685" r="8" fill="white" stroke="rgb(0, 80, 210)" stroke-width="2" /><text x="515.63116" y="173.66685" fill="white" dominant-baseline="central" font-size="12" font-family="Arial">input</text><circle cx="689.2312" cy="173.66685" r="8" fill="white" stroke="rgb(0, 80, 210)" stroke-width="2" /><text x="677.2312" y="173.66685" fill="white" text-anchor="end" dominant-baseline="central" font-size="12" font-family="Arial">output</text></g><g><rect x="767.0935" y="125.66611" width="195.2" height="144.0" fill="rgb(0, 80, 210)" rx="10" /><text x="864.6935" y="141.1661" fill="white" text-anchor="middle" dominant-baseline="central" font-size="16" font-family="Arial" font-weight="bold">Group by type (4)</text><circle cx="767.0935" cy="173.6661" r="8" fill="white" stroke="rgb(0, 80, 210)" stroke-width="2" /><text x="779.0935" y="173.6661" fill="white" dominant-baseline="central" font-size="12" font-family="Arial">input</text><rect x="864.6935" y="158.6661" width="112.6" height="94.0" stroke="black" fill="#00000000" rx="10" stroke-width="2" /><text x="950.2935" y="173.6661" fill="white" text-anchor="end" dominant-baseline="central" font-size="12" font-family="Arial" font-weight="bold">outputs</text><circle cx="962.2935" cy="205.6661" r="8" fill="white" stroke="rgb(0, 80, 210)" stroke-width="2" /><text x="950.2935" y="205.6661" fill="white" text-anchor="end" dominant-baseline="central" font-size="12" font-family="Arial">consonant</text><circle cx="962.2935" cy="237.6661" r="8" fill="white" stroke="rgb(0, 80, 210)" stroke-width="2" /><text x="950.2935" y="237.6661" fill="white" text-anchor="end" dominant-baseline="central" font-size="12" font-family="Arial">vowel</text></g><g><rect x="1100.8496" y="484.54816" width="243.2" height="80.0" fill="rgb(0, 80, 210)" rx="10" /><text x="1222.4496" y="500.04816" fill="white" text-anchor="middle" dominant-baseline="central" font-size="16" font-family="Arial" font-weight="bold">Sort by brightness (8)</text><circle cx="1100.8496" cy="532.54816" r="8" fill="white" stroke="rgb(0, 80, 210)" stroke-width="2" /><text x="1112.8496" y="532.54816" fill="white" dominant-baseline="central" font-size="12" font-family="Arial">input</text><circle cx="1344.0496" cy="532.54816" r="8" fill="white" stroke="rgb(0, 80, 210)" stroke-width="2" /><text x="1332.0496" y="532.54816" fill="white" text-anchor="end" dominant-baseline="central" font-size="12" font-family="Arial">output</text></g><g><rect x="1134.3153" y="242.27307" width="243.2" height="80.0" fill="rgb(0, 80, 210)" rx="10" /><text x="1255.9153" y="257.77307" fill="white" text-anchor="middle" dominant-baseline="central" font-size="16" font-family="Arial" font-weight="bold">Sort by brightness (7)</text><circle cx="1134.3153" cy="290.27307" r="8" fill="white" stroke="rgb(0, 80, 210)" stroke-width="2" /><text x="1146.3153" y="290.27307" fill="white" dominant-baseline="central" font-size="12" font-family="Arial">input</text><circle cx="1377.5153" cy="290.27307" r="8" fill="white" stroke="rgb(0, 80, 210)" stroke-width="2" /><text x="1365.5153" y="290.27307" fill="white" text-anchor="end" dominant-baseline="central" font-size="12" font-family="Arial">output</text></g><g><rect x="1175.7655" y="0.0" width="243.2" height="80.0" fill="rgb(0, 80, 210)" rx="10" /><text x="1297.3655" y="15.5" fill="white" text-anchor="middle" dominant-baseline="central" font-size="16" font-family="Arial" font-weight="bold">Concatenate groups (5)</text><rect x="1160.7655" y="33.0" width="136.6" height="30.0" stroke="black" fill="#00000000" rx="10" stroke-width="2" /><text x="1187.7655" y="48.0" fill="white" dominant-baseline="central" font-size="12" font-family="Arial" font-weight="bold">inputs</text><circle cx="1418.9655" cy="48.0" r="8" fill="white" stroke="rgb(0, 80, 210)" stroke-width="2" /><text x="1406.9655" y="48.0" fill="white" text-anchor="end" dominant-baseline="central" font-size="12" font-family="Arial">output</text></g><g><rect x="1570.8417" y="364.7255" width="176.0" height="112.0" fill="rgb(0, 80, 210)" rx="10" /><text x="1658.8417" y="380.2255" fill="white" text-anchor="middle" dominant-baseline="central" font-size="16" font-family="Arial" font-weight="bold">Concatenate (9)</text><circle cx="1570.8417" cy="412.7255" r="8" fill="white" stroke="rgb(0, 80, 210)" stroke-width="2" /><text x="1582.8417" y="412.7255" fill="white" dominant-baseline="central" font-size="12" font-family="Arial">0</text><circle cx="1570.8417" cy="444.7255" r="8" fill="white" stroke="rgb(0, 80, 210)" stroke-width="2" /><text x="1582.8417" y="444.7255" fill="white" dominant-baseline="central" font-size="12" font-family="Arial">1</text><circle cx="1746.8417" cy="412.7255" r="8" fill="white" stroke="rgb(0, 80, 210)" stroke-width="2" /><text x="1734.8417" y="412.7255" fill="white" text-anchor="end" dominant-baseline="central" font-size="12" font-family="Arial">output</text></g><g><rect x="1497.6128" y="0.0010528564" width="118.39999999999999" height="80.0" fill="rgb(220, 30, 10)" rx="10" /><text x="1556.8127" y="15.501053" fill="white" text-anchor="middle" dominant-baseline="central" font-size="16" font-family="Arial" font-weight="bold">Write (6)</text><circle cx="1497.6128" cy="48.001053" r="8" fill="white" stroke="rgb(220, 30, 10)" stroke-width="2" /><text x="1509.6128" y="48.001053" fill="white" dominant-baseline="central" font-size="12" font-family="Arial">input</text></g><g><rect x="1862.8077" y="364.72522" width="128.0" height="80.0" fill="rgb(220, 30, 10)" rx="10" /><text x="1926.8077" y="380.22522" fill="white" text-anchor="middle" dominant-baseline="central" font-size="16" font-family="Arial" font-weight="bold">Write (10)</text><circle cx="1862.8077" cy="412.72522" r="8" fill="white" stroke="rgb(220, 30, 10)" stroke-width="2" /><text x="1874.8077" y="412.72522" fill="white" dominant-baseline="central" font-size="12" font-family="Arial">input</text></g></g><g transform="translate(32, 32)"><path d="M 971.2935180664062 205.66610717773438 C 1012.123046875 205.66610717773438 1042.02001953125 532.5481567382812 1082.849609375 532.5481567382812" stroke="black" fill="none" stroke-width="2" /><path d="M7,0 L0,-3.5 V3.5 Z" fill="black" stroke="black" transform="translate(1082.849609375, 532.5481567382812)" stroke-width="4" stroke-linejoin="round" /><path d="M 971.2935180664062 237.66610717773438 C 1024.3714599609375 237.66610717773438 1063.2373046875 290.2730712890625 1116.3153076171875 290.2730712890625" stroke="black" fill="none" stroke-width="2" /><path d="M7,0 L0,-3.5 V3.5 Z" fill="black" stroke="black" transform="translate(1116.3153076171875, 290.2730712890625)" stroke-width="4" stroke-linejoin="round" /><path d="M 977.2935180664062 173.66610717773438 C 1038.2222900390625 173.66610717773438 1082.8367919921875 48.0 1143.7655029296875 48.0" stroke="black" fill="none" stroke-width="6" /><path d="M15,0 L0,-7.5 V7.5 Z" fill="black" stroke="black" transform="translate(1143.7655029296875, 48.0)" stroke-width="4" stroke-linejoin="round" /><path d="M 426.1111755371094 173.66641235351562 C 447.8954772949219 173.66641235351562 463.84686279296875 173.66685485839844 485.63116455078125 173.66685485839844" stroke="black" fill="none" stroke-width="2" /><path d="M7,0 L0,-3.5 V3.5 Z" fill="black" stroke="black" transform="translate(485.63116455078125, 173.66685485839844)" stroke-width="4" stroke-linejoin="round" /><path d="M 1386.5152587890625 290.2730712890625 C 1447.3907470703125 290.2730712890625 1491.9661865234375 412.7254943847656 1552.8416748046875 412.7254943847656" stroke="black" fill="none" stroke-width="2" /><path d="M7,0 L0,-3.5 V3.5 Z" fill="black" stroke="black" transform="translate(1552.8416748046875, 412.7254943847656)" stroke-width="4" stroke-linejoin="round" /><path d="M 1427.9654541015625 48.0 C 1446.868408203125 48.0 1460.7098388671875 48.00105285644531 1479.61279296875 48.00105285644531" stroke="black" fill="none" stroke-width="2" /><path d="M7,0 L0,-3.5 V3.5 Z" fill="black" stroke="black" transform="translate(1479.61279296875, 48.00105285644531)" stroke-width="4" stroke-linejoin="round" /><path d="M 117.80000305175781 173.66549682617188 C 159.8574981689453 173.66549682617188 190.6536865234375 173.66641235351562 232.711181640625 173.66641235351562" stroke="black" fill="none" stroke-width="2" /><path d="M7,0 L0,-3.5 V3.5 Z" fill="black" stroke="black" transform="translate(232.711181640625, 173.66641235351562)" stroke-width="4" stroke-linejoin="round" /><path d="M 1755.8416748046875 412.7254943847656 C 1788.4031982421875 412.7254943847656 1812.2462158203125 412.7252197265625 1844.8077392578125 412.7252197265625" stroke="black" fill="none" stroke-width="2" /><path d="M7,0 L0,-3.5 V3.5 Z" fill="black" stroke="black" transform="translate(1844.8077392578125, 412.7252197265625)" stroke-width="4" stroke-linejoin="round" /><path d="M 1353.049560546875 532.5481567382812 C 1426.1734619140625 532.5481567382812 1479.7177734375 444.7254943847656 1552.8416748046875 444.7254943847656" stroke="black" fill="none" stroke-width="2" /><path d="M7,0 L0,-3.5 V3.5 Z" fill="black" stroke="black" transform="translate(1552.8416748046875, 444.7254943847656)" stroke-width="4" stroke-linejoin="round" /><path d="M 698.231201171875 173.66685485839844 C 716.8468017578125 173.66685485839844 730.4779052734375 173.66610717773438 749.093505859375 173.66610717773438" stroke="black" fill="none" stroke-width="2" /><path d="M7,0 L0,-3.5 V3.5 Z" fill="black" stroke="black" transform="translate(749.093505859375, 173.66610717773438)" stroke-width="4" stroke-linejoin="round" /></g></svg>