<svg xmlns="http://www.w3.org/2000/svg" width="2037.3469" height="572.791"><g transform="translate(32, 32)"><g><rect x="0.0" y="182.53745" width="214.4" height="80.0" fill="rgb(10, 160, 40)" rx="10" /><text x="107.2" y="198.03745" fill="white" text-anchor="middle" dominant-baseline="central" font-size="16" font-family="Arial" font-weight="bold">UnderfolderSource_1</text><circle cx="214.4" cy="230.53745" r="8" fill="white" stroke="rgb(10, 160, 40)" stroke-width="2" /><text x="202.4" y="230.53745" fill="white" text-anchor="end" dominant-baseline="central" font-size="12" font-family="Arial">output</text></g><g><rect x="353.48886" y="182.51123" width="137.6" height="80.0" fill="rgb(0, 80, 210)" rx="10" /><text x="422.28888" y="198.01123" fill="white" text-anchor="middle" dominant-baseline="central" font-size="16" font-family="Arial" font-weight="bold">RepeatOp_1</text><circle cx="353.48886" cy="230.51123" r="8" fill="white" stroke="rgb(0, 80, 210)" stroke-width="2" /><text x="365.48886" y="230.51123" fill="white" dominant-baseline="central" font-size="12" font-family="Arial">input</text><circle cx="491.08887" cy="230.51123" r="8" fill="white" stroke="rgb(0, 80, 210)" stroke-width="2" /><text x="479.08887" y="230.51123" fill="white" text-anchor="end" dominant-baseline="central" font-size="12" font-family="Arial">output</text></g><g><rect x="569.2845" y="182.4912" width="137.6" height="80.0" fill="rgb(0, 80, 210)" rx="10" /><text x="638.0845" y="197.9912" fill="white" text-anchor="middle" dominant-baseline="central" font-size="16" font-family="Arial" font-weight="bold">MapOp_1</text><circle cx="569.2845" cy="230.4912" r="8" fill="white" stroke="rgb(0, 80, 210)" stroke-width="2" /><text x="581.2845" y="230.4912" fill="white" dominant-baseline="central" font-size="12" font-family="Arial">input</text><circle cx="706.8845" cy="230.4912" r="8" fill="white" stroke="rgb(0, 80, 210)" stroke-width="2" /><text x="694.8845" y="230.4912" fill="white" text-anchor="end" dominant-baseline="central" font-size="12" font-family="Arial">output</text></g><g><rect x="802.8382" y="182.4594" width="166.39999999999998" height="144.0" fill="rgb(0, 80, 210)" rx="10" /><text x="886.0382" y="197.9594" fill="white" text-anchor="middle" dominant-baseline="central" font-size="16" font-family="Arial" font-weight="bold">GroupByOp_1</text><circle cx="802.8382" cy="230.4594" r="8" fill="white" stroke="rgb(0, 80, 210)" stroke-width="2" /><text x="814.8382" y="230.4594" fill="white" dominant-baseline="central" font-size="12" font-family="Arial">input</text><rect x="886.0382" y="215.4594" width="98.19999999999999" height="94.0" stroke="black" fill="#00000000" rx="10" stroke-width="2" /><text x="957.23816" y="230.4594" fill="white" text-anchor="end" dominant-baseline="central" font-size="12" font-family="Arial" font-weight="bold">outputs</text><circle cx="969.23816" cy="262.4594" r="8" fill="white" stroke="rgb(0, 80, 210)" stroke-width="2" /><text x="957.23816" y="262.4594" fill="white" text-anchor="end" dominant-baseline="central" font-size="12" font-family="Arial">consonant</text><circle cx="969.23816" cy="294.4594" r="8" fill="white" stroke="rgb(0, 80, 210)" stroke-width="2" /><text x="957.23816" y="294.4594" fill="white" text-anchor="end" dominant-baseline="central" font-size="12" font-family="Arial">vowel</text></g><g><rect x="1214.0225" y="0.0" width="137.6" height="80.0" fill="rgb(0, 80, 210)" rx="10" /><text x="1282.8225" y="15.5" fill="white" text-anchor="middle" dominant-baseline="central" font-size="16" font-family="Arial" font-weight="bold">SortOp_1</text><circle cx="1214.0225" cy="48.0" r="8" fill="white" stroke="rgb(0, 80, 210)" stroke-width="2" /><text x="1226.0225" y="48.0" fill="white" dominant-baseline="central" font-size="12" font-family="Arial">input</text><circle cx="1351.6224" cy="48.0" r="8" fill="white" stroke="rgb(0, 80, 210)" stroke-width="2" /><text x="1339.6224" y="48.0" fill="white" text-anchor="end" dominant-baseline="central" font-size="12" font-family="Arial">output</text></g><g><rect x="1176.7792" y="214.39793" width="137.6" height="80.0" fill="rgb(0, 80, 210)" rx="10" /><text x="1245.5792" y="229.89793" fill="white" text-anchor="middle" dominant-baseline="central" font-size="16" font-family="Arial" font-weight="bold">SortOp_2</text><circle cx="1176.7792" cy="262.39795" r="8" fill="white" stroke="rgb(0, 80, 210)" stroke-width="2" /><text x="1188.7792" y="262.39795" fill="white" dominant-baseline="central" font-size="12" font-family="Arial">input</text><circle cx="1314.3792" cy="262.39795" r="8" fill="white" stroke="rgb(0, 80, 210)" stroke-width="2" /><text x="1302.3792" y="262.39795" fill="white" text-anchor="end" dominant-baseline="central" font-size="12" font-family="Arial">output</text></g><g><rect x="1175.6302" y="428.79102" width="147.2" height="80.0" fill="rgb(0, 80, 210)" rx="10" /><text x="1249.2302" y="444.29102" fill="white" text-anchor="middle" dominant-baseline="central" font-size="16" font-family="Arial" font-weight="bold">GroupCat_1</text><rect x="1160.6302" y="461.79102" width="88.6" height="30.0" stroke="black" fill="#00000000" rx="10" stroke-width="2" /><text x="1187.6302" y="476.79102" fill="white" dominant-baseline="central" font-size="12" font-family="Arial" font-weight="bold">inputs</text><circle cx="1322.8302" cy="476.79102" r="8" fill="white" stroke="rgb(0, 80, 210)" stroke-width="2" /><text x="1310.8302" y="476.79102" fill="white" text-anchor="end" dominant-baseline="central" font-size="12" font-family="Arial">output</text></g><g><rect x="1522.6313" y="131.69366" width="99.2" height="112.0" fill="rgb(0, 80, 210)" rx="10" /><text x="1572.2313" y="147.19366" fill="white" text-anchor="middle" dominant-baseline="central" font-size="16" font-family="Arial" font-weight="bold">CatOp_1</text><circle cx="1522.6313" cy="179.69366" r="8" fill="white" stroke="rgb(0, 80, 210)" stroke-width="2" /><text x="1534.6313" y="179.69366" fill="white" dominant-baseline="central" font-size="12" font-family="Arial">0</text><circle cx="1522.6313" cy="211.69366" r="8" fill="white" stroke="rgb(0, 80, 210)" stroke-width="2" /><text x="1534.6313" y="211.69366" fill="white" dominant-baseline="central" font-size="12" font-family="Arial">1</text><circle cx="1621.8313" cy="179.69366" r="8" fill="white" stroke="rgb(0, 80, 210)" stroke-width="2" /><text x="1609.8313" y="179.69366" fill="white" text-anchor="end" dominant-baseline="central" font-size="12" font-family="Arial">output</text></g><g><rect x="1498.9806" y="428.6809" width="195.2" height="80.0" fill="rgb(220, 30, 10)" rx="10" /><text x="1596.5806" y="444.1809" fill="white" text-anchor="middle" dominant-baseline="central" font-size="16" font-family="Arial" font-weight="bold">UnderfolderSink_2</text><circle cx="1498.9806" cy="476.6809" r="8" fill="white" stroke="rgb(220, 30, 10)" stroke-width="2" /><text x="1510.9806" y="476.6809" fill="white" dominant-baseline="central" font-size="12" font-family="Arial">input</text></g><g><rect x="1778.147" y="131.75623" width="195.2" height="80.0" fill="rgb(220, 30, 10)" rx="10" /><text x="1875.747" y="147.25623" fill="white" text-anchor="middle" dominant-baseline="central" font-size="16" font-family="Arial" font-weight="bold">UnderfolderSink_1</text><circle cx="1778.147" cy="179.75623" r="8" fill="white" stroke="rgb(220, 30, 10)" stroke-width="2" /><text x="1790.147" y="179.75623" fill="white" dominant-baseline="central" font-size="12" font-family="Arial">input</text></g></g><g transform="translate(32, 32)"><path d="M 1360.6224365234375 48.0 C 1413.3297119140625 48.0 1451.924072265625 179.69366455078125 1504.63134765625 179.69366455078125" stroke="black" fill="none" stroke-width="2" /><path d="M7,0 L0,-3.5 V3.5 Z" fill="black" stroke="black" transform="translate(1504.63134765625, 179.69366455078125)" stroke-width="4" stroke-linejoin="round" /><path d="M 978.2381591796875 294.45941162109375 C 1057.947265625 294.45941162109375 1116.3133544921875 48.0 1196.0224609375 48.0" stroke="black" fill="none" stroke-width="2" /><path d="M7,0 L0,-3.5 V3.5 Z" fill="black" stroke="black" transform="translate(1196.0224609375, 48.0)" stroke-width="4" stroke-linejoin="round" /><path d="M 978.2381591796875 262.45941162109375 C 1044.316162109375 262.45941162109375 1092.701171875 262.39794921875 1158.7791748046875 262.39794921875" stroke="black" fill="none" stroke-width="2" /><path d="M7,0 L0,-3.5 V3.5 Z" fill="black" stroke="black" transform="translate(1158.7791748046875, 262.39794921875)" stroke-width="4" stroke-linejoin="round" /><path d="M 984.2381591796875 230.4593963623047 C 1042.57568359375 230.4593963623047 1085.292724609375 476.791015625 1143.6302490234375 476.791015625" stroke="black" fill="none" stroke-width="6" /><path d="M15,0 L0,-7.5 V7.5 Z" fill="black" stroke="black" transform="translate(1143.6302490234375, 476.791015625)" stroke-width="4" stroke-linejoin="round" /><path d="M 1323.379150390625 262.39794921875 C 1389.7174072265625 262.39794921875 1438.2930908203125 211.69366455078125 1504.63134765625 211.69366455078125" stroke="black" fill="none" stroke-width="2" /><path d="M7,0 L0,-3.5 V3.5 Z" fill="black" stroke="black" transform="translate(1504.63134765625, 211.69366455078125)" stroke-width="4" stroke-linejoin="round" /><path d="M 1630.831298828125 179.69366455078125 C 1678.160888671875 179.69366455078125 1712.8173828125 179.7562255859375 1760.14697265625 179.7562255859375" stroke="black" fill="none" stroke-width="2" /><path d="M7,0 L0,-3.5 V3.5 Z" fill="black" stroke="black" transform="translate(1760.14697265625, 179.7562255859375)" stroke-width="4" stroke-linejoin="round" /><path d="M 1331.8302001953125 476.791015625 C 1386.419189453125 476.791015625 1426.3916015625 476.680908203125 1480.9805908203125 476.680908203125" stroke="black" fill="none" stroke-width="2" /><path d="M7,0 L0,-3.5 V3.5 Z" fill="black" stroke="black" transform="translate(1480.9805908203125, 476.680908203125)" stroke-width="4" stroke-linejoin="round" /><path d="M 500.0888671875 230.51123046875 C 518.8264770507812 230.51123046875 532.546875 230.49119567871094 551.2844848632812 230.49119567871094" stroke="black" fill="none" stroke-width="2" /><path d="M7,0 L0,-3.5 V3.5 Z" fill="black" stroke="black" transform="translate(551.2844848632812, 230.49119567871094)" stroke-width="4" stroke-linejoin="round" /><path d="M 223.39999389648438 230.53744506835938 C 264.4245300292969 230.53744506835938 294.4643249511719 230.51123046875 335.4888610839844 230.51123046875" stroke="black" fill="none" stroke-width="2" /><path d="M7,0 L0,-3.5 V3.5 Z" fill="black" stroke="black" transform="translate(335.4888610839844, 230.51123046875)" stroke-width="4" stroke-linejoin="round" /><path d="M 715.884521484375 230.49119567871094 C 741.12158203125 230.49119567871094 759.6011352539062 230.4593963623047 784.8381958007812 230.4593963623047" stroke="black" fill="none" stroke-width="2" /><path d="M7,0 L0,-3.5 V3.5 Z" fill="black" stroke="black" transform="translate(784.8381958007812, 230.4593963623047)" stroke-width="4" stroke-linejoin="round" /></g></svg>